<?xml version="1.0" encoding="iso-8859-1"?>
<!-- Generator: Adobe Illustrator 19.0.0, SVG Export Plug-In . SVG Version: 6.00 Build 0)  -->
<svg version="1.1" id="Layer_1" xmlns="http://www.w3.org/2000/svg" xmlns:xlink="http://www.w3.org/1999/xlink" x="0px" y="0px"
	 viewBox="0 0 512 512" style="enable-background:new 0 0 512 512;" xml:space="preserve">
<g transform="translate(1 1)">
	<path style="fill:#FFDD09;" d="M204.227,161.133h59.733V127H59.16v42.667c0,20.48-1.707,40.107-5.973,59.733v1.707
		C40.387,298.52,33.56,365.933,33.56,434.2l0,0v59.733c0,5.12,3.413,8.533,8.533,8.533h128c5.12,0,8.533-3.413,8.533-8.533v-25.6
		l64,19.627c31.573,9.387,64,14.507,96.427,14.507h121.173v-39.253c0-53.76-40.107-97.28-93.867-97.28
		c-44.373,0-83.627-29.013-97.28-68.267h-64.853"/>
	<polygon style="fill:#FD9808;" points="238.36,161.133 263.96,161.133 263.96,127 238.36,127 	"/>
	<polygon style="fill:#FFDD09;" points="263.96,161.133 289.56,161.133 289.56,127 263.96,127 	"/>
	<g>
		<path style="fill:#FCC309;" d="M460.227,468.333v-5.12c0-53.76-40.107-97.28-93.867-97.28v102.4H460.227z"/>
		<path style="fill:#FCC309;" d="M38.68,331.8c-3.413,31.573-5.12,62.293-5.12,93.867h145.067c0-52.053-41.813-93.867-93.867-93.867
			H38.68z"/>
	</g>
	<path style="fill:#FFFFFF;" d="M59.16,493.933V434.2l0,0c0-68.267,6.827-135.68,19.627-202.24v-1.707
		c4.267-19.627,5.973-40.107,5.973-59.733v-42.667h-25.6v42.667c0,20.48-1.707,40.107-5.973,59.733v1.707
		C40.387,298.52,33.56,365.933,33.56,434.2l0,0v59.733c0,5.12,3.413,8.533,8.533,8.533h25.6
		C62.573,502.467,59.16,499.053,59.16,493.933"/>
	<path style="fill:#FD9808;" d="M242.627,301.933c7.68,7.68,13.653,16.213,18.773,25.6c17.067,29.867,48.64,53.76,78.507,55.467
		c53.76,2.56,93.867,23.04,93.867,76.8v42.667h25.6v-39.253c0-52.907-42.667-95.573-95.573-97.28
		c-43.52-0.853-81.067-29.013-94.72-68.267h-30.72L242.627,301.933z"/>
	<g>
		<path style="fill:#FFDD09;" d="M268.227,293.4c7.68,7.68,13.653,16.213,18.773,25.6c17.067,29.867,48.64,53.76,78.507,55.467
			c53.76,2.56,93.867,23.04,93.867,76.8v51.2h17.067c4.267,0,8.533-3.413,8.533-8.533V457.24
			c0-54.613-44.373-105.813-98.987-108.373c-40.96-2.56-78.507-22.187-92.16-59.733H263.96L268.227,293.4z"/>
		<path style="fill:#FFDD09;" d="M272.493,127H50.627c-9.387,0-17.067-7.68-17.067-17.067V24.6c0-9.387,7.68-17.067,17.067-17.067
			h221.867c9.387,0,17.067,7.68,17.067,17.067v85.333C289.56,119.32,281.88,127,272.493,127"/>
	</g>
	<path style="fill:#FD9808;" d="M272.493,7.533h-25.6c9.387,0,17.067,7.68,17.067,17.067v85.333c0,9.387-7.68,17.067-17.067,17.067
		h25.6c9.387,0,17.067-7.68,17.067-17.067V24.6C289.56,15.213,281.88,7.533,272.493,7.533"/>
	<path style="fill:#FFFFFF;" d="M50.627,7.533h25.6c-9.387,0-17.067,7.68-17.067,17.067v85.333c0,9.387,7.68,17.067,17.067,17.067
		h-25.6c-9.387,0-17.067-7.68-17.067-17.067V24.6C33.56,15.213,41.24,7.533,50.627,7.533"/>
	<path style="fill:#FFDD09;" d="M298.093,7.533h-25.6c9.387,0,17.067,7.68,17.067,17.067v85.333c0,9.387-7.68,17.067-17.067,17.067
		h25.6c9.387,0,17.067-7.68,17.067-17.067V24.6C315.16,15.213,307.48,7.533,298.093,7.533"/>
	<polygon style="fill:#1CD759;" points="178.627,161.133 118.893,195.267 187.16,229.4 118.893,263.533 178.627,297.667 
		281.027,297.667 281.027,161.133 	"/>
	<polygon style="fill:#15A143;" points="255.427,297.667 281.027,297.667 281.027,161.133 255.427,161.133 	"/>
	<path style="fill:#1CD759;" d="M281.027,161.133v136.533h17.92c4.267,0,7.68-3.413,7.68-7.68V168.813c0-4.267-3.413-7.68-7.68-7.68
		H281.027z"/>
	<path d="M272.493,135.533H50.627c-14.507,0-25.6-11.093-25.6-25.6V24.6c0-14.507,11.093-25.6,25.6-25.6h221.867
		c14.507,0,25.6,11.093,25.6,25.6v85.333C298.093,124.44,287,135.533,272.493,135.533z M50.627,16.067
		c-5.12,0-8.533,3.413-8.533,8.533v85.333c0,5.12,3.413,8.533,8.533,8.533h221.867c5.12,0,8.533-3.413,8.533-8.533V24.6
		c0-5.12-3.413-8.533-8.533-8.533H50.627z"/>
	<path d="M460.227,476.867H366.36c-5.12,0-8.533-3.413-8.533-8.533v-102.4c0-5.12,3.413-8.533,8.533-8.533
		c57.173,0,102.4,46.08,102.4,105.813v5.12C468.76,473.453,465.347,476.867,460.227,476.867z M374.893,459.8h76.8
		c-1.707-45.227-34.133-81.067-76.8-85.333V459.8z"/>
	<path d="M366.36,476.867h-7.68c-41.813,0-81.92-7.68-121.173-22.187L176.92,434.2H33.56c-5.12,0-8.533-3.413-8.533-8.533
		s3.413-8.533,8.533-8.533h145.067c0.853,0,1.707,0,2.56,0.853l62.293,20.48c37.547,14.507,75.947,21.333,115.2,21.333h7.68
		c5.12,0,8.533,3.413,8.533,8.533C374.893,473.453,371.48,476.867,366.36,476.867z"/>
	<path d="M178.627,434.2H33.56c-2.56,0-4.267-0.853-5.973-2.56c-1.707-1.707-2.56-3.413-2.56-5.973c0-31.573,1.707-64,5.12-94.72
		c0.853-4.267,4.267-7.68,8.533-7.68h46.08c56.32,0,102.4,46.08,102.4,102.4C187.16,430.787,183.747,434.2,178.627,434.2z
		 M42.093,417.133h128c-4.267-42.667-40.96-76.8-85.333-76.8h-38.4C43.8,365.08,42.947,391.533,42.093,417.133z"/>
	<path d="M84.76,50.2h-51.2c-5.12,0-8.533-3.413-8.533-8.533s3.413-8.533,8.533-8.533h51.2c5.12,0,8.533,3.413,8.533,8.533
		S89.88,50.2,84.76,50.2z"/>
	<path d="M67.693,84.333H33.56c-5.12,0-8.533-3.413-8.533-8.533s3.413-8.533,8.533-8.533h34.133c5.12,0,8.533,3.413,8.533,8.533
		C76.227,80.92,72.813,84.333,67.693,84.333z"/>
	<path d="M289.56,101.4h-51.2c-5.12,0-8.533-3.413-8.533-8.533s3.413-8.533,8.533-8.533h51.2c5.12,0,8.533,3.413,8.533,8.533
		S294.68,101.4,289.56,101.4z"/>
	<path d="M289.56,67.267h-34.133c-5.12,0-8.533-3.413-8.533-8.533s3.413-8.533,8.533-8.533h34.133c5.12,0,8.533,3.413,8.533,8.533
		S294.68,67.267,289.56,67.267z"/>
	<path d="M460.227,511H339.053c-33.28,0-66.56-5.12-98.987-14.507L187.16,480.28v13.653c0,9.387-7.68,17.067-17.067,17.067h-128
		c-9.387,0-17.067-7.68-17.067-17.067V434.2c0-68.267,6.827-137.387,20.48-203.947v-1.707c3.413-18.773,5.973-38.4,5.12-58.027
		v-42.667c0-2.56,0.853-4.267,2.56-5.973c1.707-2.56,3.413-3.413,5.973-3.413h204.8c5.12,0,8.533,3.413,8.533,8.533v34.133
		c0,5.12-3.413,8.533-8.533,8.533h-59.733c-5.12,0-8.533-3.413-8.533-8.533c0-5.12,3.413-8.533,8.533-8.533h51.2v-17.067H67.693
		v34.133c0,20.48-1.707,40.96-5.973,61.44v1.707c-12.8,66.56-19.627,133.973-19.627,201.387v59.733h128v-25.6
		c0-2.56,1.707-5.12,3.413-6.827c2.56-1.707,5.12-1.707,7.68-1.707l64,19.627c30.72,9.387,62.293,14.507,93.867,14.507h112.64
		v-30.72c0-49.493-37.547-88.747-85.333-88.747c-44.373,0-86.187-28.16-103.253-68.267h-58.88c-5.12,0-8.533-3.413-8.533-8.533
		s3.413-8.533,8.533-8.533h64.853c3.413,0,6.827,2.56,7.68,5.973c13.653,36.693,50.347,62.293,89.6,62.293
		c57.173,0,102.4,46.08,102.4,105.813v39.253C468.76,507.587,465.347,511,460.227,511z"/>
	<path d="M281.027,306.2h-102.4c-1.707,0-2.56,0-4.267-0.853l-59.733-34.133c-2.56-1.707-4.267-5.12-4.267-7.68
		s1.707-5.973,5.12-7.68l52.907-26.453l-52.907-26.453c-3.413-1.707-5.12-4.267-5.12-7.68s1.707-5.973,4.267-7.68l59.733-34.133
		c1.707-0.853,2.56-0.853,4.267-0.853h102.4c5.12,0,8.533,3.413,8.533,8.533v136.533C289.56,302.787,286.147,306.2,281.027,306.2z
		 M181.187,289.133h91.307V169.667h-91.307l-43.52,24.747l53.76,27.307c2.56,1.707,5.12,4.267,5.12,7.68s-1.707,5.973-5.12,7.68
		l-53.76,27.307L181.187,289.133z"/>
	<path d="M281.027,203.8L281.027,203.8h-34.133c-5.12,0-8.533-4.267-8.533-8.533c0-5.12,3.413-8.533,8.533-8.533l0,0h34.133
		c5.12,0,8.533,4.267,8.533,8.533C289.56,200.387,286.147,203.8,281.027,203.8z"/>
	<path d="M281.027,237.933h-25.6c-5.12,0-8.533-3.413-8.533-8.533c0-5.12,3.413-8.533,8.533-8.533h25.6
		c5.12,0,8.533,3.413,8.533,8.533C289.56,234.52,286.147,237.933,281.027,237.933z"/>
	<path d="M281.027,272.067h-34.133c-5.12,0-8.533-3.413-8.533-8.533c0-5.12,3.413-8.533,8.533-8.533h34.133
		c5.12,0,8.533,3.413,8.533,8.533C289.56,268.653,286.147,272.067,281.027,272.067z"/>
</g>
<g>
</g>
<g>
</g>
<g>
</g>
<g>
</g>
<g>
</g>
<g>
</g>
<g>
</g>
<g>
</g>
<g>
</g>
<g>
</g>
<g>
</g>
<g>
</g>
<g>
</g>
<g>
</g>
<g>
</g>
</svg>
