<?xml version="1.0" encoding="iso-8859-1"?>
<!-- Uploaded to: SVG Repo, www.svgrepo.com, Generator: SVG Repo Mixer Tools -->
<!DOCTYPE svg PUBLIC "-//W3C//DTD SVG 1.1//EN" "http://www.w3.org/Graphics/SVG/1.1/DTD/svg11.dtd">
<svg height="800px" width="800px" version="1.1" id="Capa_1" xmlns="http://www.w3.org/2000/svg" xmlns:xlink="http://www.w3.org/1999/xlink" 
	 viewBox="0 0 456.933 456.933" xml:space="preserve">
<g>
	<linearGradient id="SVGID_1_" gradientUnits="userSpaceOnUse" x1="422.1539" y1="349.5534" x2="314.6747" y2="349.5534">
		<stop  offset="0" style="stop-color:#FF8015"/>
		<stop  offset="0.2122" style="stop-color:#FB7E15"/>
		<stop  offset="0.4183" style="stop-color:#EF7814"/>
		<stop  offset="0.6218" style="stop-color:#DC6E12"/>
		<stop  offset="0.8225" style="stop-color:#C16110"/>
		<stop  offset="1" style="stop-color:#A2510D"/>
	</linearGradient>
	<path style="fill:url(#SVGID_1_);" d="M402.138,262.143c0,0,20.67,5.323,20,46.66s-8.003,127.343-38.67,131.34
		s-63.33-17.34-63.33-17.34s-11.343-18.003-1.34-36s20.67-74.657,22.67-88.66c2-14.003,9.993-35.337,27.33-38.67
		C386.135,256.14,402.138,262.143,402.138,262.143z"/>
	<linearGradient id="SVGID_2_" gradientUnits="userSpaceOnUse" x1="335.9758" y1="230.7783" x2="348.7082" y2="243.5107">
		<stop  offset="0" style="stop-color:#CCCCCC"/>
		<stop  offset="0.343" style="stop-color:#898989"/>
		<stop  offset="1" style="stop-color:#000000"/>
	</linearGradient>
	<path style="fill:url(#SVGID_2_);" d="M346.198,229.013c4.48,2.12,6.4,7.5,4.27,11.98c-1.02,2.18-2.84,3.82-5.1,4.62
		c-2.27,0.81-4.71,0.69-6.88-0.34c-4.49-2.12-6.41-7.5-4.28-11.99c1.54-3.24,4.78-5.14,8.15-5.14
		C343.648,228.143,344.958,228.423,346.198,229.013z"/>
	<linearGradient id="SVGID_3_" gradientUnits="userSpaceOnUse" x1="208.5422" y1="290.4561" x2="248.4711" y2="267.4031">
		<stop  offset="0" style="stop-color:#CCCCCC"/>
		<stop  offset="0.2284" style="stop-color:#929292"/>
		<stop  offset="0.4963" style="stop-color:#545454"/>
		<stop  offset="0.7236" style="stop-color:#262626"/>
		<stop  offset="0.8986" style="stop-color:#0A0A0A"/>
		<stop  offset="1" style="stop-color:#000000"/>
	</linearGradient>
	<path style="fill:url(#SVGID_3_);" d="M229.068,262.023l22.44,10.64c-10.65,17.08-23.15,25.88-37.91,26.55
		c3.1-2.06,5.9-4.62,8.28-7.63c6.08-7.66,8.75-17.22,7.53-26.92L229.068,262.023z"/>
	<linearGradient id="SVGID_4_" gradientUnits="userSpaceOnUse" x1="416.214" y1="161.831" x2="388.9542" y2="209.0464">
		<stop  offset="0" style="stop-color:#CCCCCC"/>
		<stop  offset="0.1098" style="stop-color:#C8C8C8"/>
		<stop  offset="0.2249" style="stop-color:#BBBBBB"/>
		<stop  offset="0.3425" style="stop-color:#A6A6A6"/>
		<stop  offset="0.461" style="stop-color:#898989"/>
		<stop  offset="0.5347" style="stop-color:#737373"/>
		<stop  offset="0.6161" style="stop-color:#6F6F6F"/>
		<stop  offset="0.7045" style="stop-color:#626262"/>
		<stop  offset="0.7963" style="stop-color:#4C4C4C"/>
		<stop  offset="0.8904" style="stop-color:#2D2D2D"/>
		<stop  offset="0.9854" style="stop-color:#070707"/>
		<stop  offset="1" style="stop-color:#000000"/>
	</linearGradient>
	<path style="fill:url(#SVGID_4_);" d="M444.878,178.393c0.84,0.4,1.48,1.11,1.8,1.99c0.31,0.89,0.26,1.84-0.13,2.68
		c-0.83,1.74-2.92,2.49-4.67,1.66l-3.22-1.53c-8.51-4.03-18.66-2.71-25.86,3.37l-7.03,5.94c-1,0.84-1.52,2.12-1.4,3.42
		c0.62,6.7-0.81,13.38-4.16,19.31c-0.04,0.08-0.09,0.15-0.14,0.23c-17.75-10.73-28.22-29.64-28.85-49.49
		c4.06-0.05,8.13,0.65,11.91,2.09l0.35,0.14c12.24,4.79,25.6,5.07,37.62,0.78c1.42-0.51,3.02-0.43,4.38,0.22L444.878,178.393z"/>
	
		<radialGradient id="SVGID_5_" cx="290.0356" cy="193.0329" r="39.215" gradientTransform="matrix(0.9135 0.4067 -1.2202 2.7406 260.6156 -453.9683)" gradientUnits="userSpaceOnUse">
		<stop  offset="0" style="stop-color:#B3B3B3"/>
		<stop  offset="1" style="stop-color:#000000"/>
	</radialGradient>
	<path style="fill:url(#SVGID_5_);" d="M306.848,145.373c12.51,17.2,15.5,40.55,5.77,61.08c-6.87,14.49-18.96,25.44-34.05,30.82
		c-5.52,1.97-11.2,3.1-16.89,3.42L306.848,145.373z"/>
	<linearGradient id="SVGID_6_" gradientUnits="userSpaceOnUse" x1="254.4094" y1="112.0586" x2="201.377" y2="220.7912">
		<stop  offset="0" style="stop-color:#CCCCCC"/>
		<stop  offset="0.0523" style="stop-color:#C8C8C8"/>
		<stop  offset="0.1071" style="stop-color:#BBBBBB"/>
		<stop  offset="0.163" style="stop-color:#A6A6A6"/>
		<stop  offset="0.2194" style="stop-color:#898989"/>
		<stop  offset="0.2545" style="stop-color:#737373"/>
		<stop  offset="0.3489" style="stop-color:#777777"/>
		<stop  offset="0.4514" style="stop-color:#848484"/>
		<stop  offset="0.5578" style="stop-color:#9A9A9A"/>
		<stop  offset="0.6662" style="stop-color:#B8B8B8"/>
		<stop  offset="0.7047" style="stop-color:#C5C5C5"/>
		<stop  offset="0.7413" style="stop-color:#C0C0C0"/>
		<stop  offset="0.7835" style="stop-color:#B2B2B2"/>
		<stop  offset="0.8285" style="stop-color:#9B9B9B"/>
		<stop  offset="0.8755" style="stop-color:#7B7B7B"/>
		<stop  offset="0.924" style="stop-color:#515151"/>
		<stop  offset="0.9731" style="stop-color:#1F1F1F"/>
		<stop  offset="1" style="stop-color:#000000"/>
	</linearGradient>
	<path style="fill:url(#SVGID_6_);" d="M301.168,138.673l-48.27,101.86c-6.91-0.64-13.73-2.49-20.2-5.56l-79.52-37.69l5.57-11.74
		l60.09,28.48c2.56,1.21,5.25,1.78,7.9,1.78c6.93,0,13.59-3.91,16.75-10.58c2.12-4.47,2.36-9.49,0.7-14.13
		c-1.65-4.66-5.03-8.39-9.5-10.51l-60.09-28.48l10.28-21.69l60.09,28.49c2.52,1.19,5.21,1.79,7.91,1.79c2.1,0,4.2-0.36,6.23-1.09
		c4.66-1.66,8.38-5.03,10.5-9.5s2.37-9.5,0.71-14.13c-1.66-4.66-5.03-8.39-9.5-10.51l-60.1-28.48l3.86-8.13l79.52,37.69
		C290.638,129.643,296.368,133.783,301.168,138.673z"/>
	<linearGradient id="SVGID_7_" gradientUnits="userSpaceOnUse" x1="196.9249" y1="194.9755" x2="205.9764" y2="175.5644">
		<stop  offset="0" style="stop-color:#CCCCCC"/>
		<stop  offset="0.1098" style="stop-color:#C8C8C8"/>
		<stop  offset="0.2249" style="stop-color:#BBBBBB"/>
		<stop  offset="0.3425" style="stop-color:#A6A6A6"/>
		<stop  offset="0.461" style="stop-color:#898989"/>
		<stop  offset="0.5347" style="stop-color:#737373"/>
		<stop  offset="0.6161" style="stop-color:#6F6F6F"/>
		<stop  offset="0.7045" style="stop-color:#626262"/>
		<stop  offset="0.7963" style="stop-color:#4C4C4C"/>
		<stop  offset="0.8904" style="stop-color:#2D2D2D"/>
		<stop  offset="0.9854" style="stop-color:#070707"/>
		<stop  offset="1" style="stop-color:#000000"/>
	</linearGradient>
	<path style="fill:url(#SVGID_7_);" d="M236.658,193.783c0.94,2.63,0.8,5.48-0.4,8.02c-2.48,5.23-8.76,7.47-13.99,4.99l-60.09-28.48
		l8.99-18.98l60.09,28.48C233.798,189.013,235.718,191.133,236.658,193.783z"/>
	<linearGradient id="SVGID_8_" gradientUnits="userSpaceOnUse" x1="223.0466" y1="139.8517" x2="232.0982" y2="120.4406">
		<stop  offset="0" style="stop-color:#CCCCCC"/>
		<stop  offset="0.1098" style="stop-color:#C8C8C8"/>
		<stop  offset="0.2249" style="stop-color:#BBBBBB"/>
		<stop  offset="0.3425" style="stop-color:#A6A6A6"/>
		<stop  offset="0.461" style="stop-color:#898989"/>
		<stop  offset="0.5347" style="stop-color:#737373"/>
		<stop  offset="0.6161" style="stop-color:#6F6F6F"/>
		<stop  offset="0.7045" style="stop-color:#626262"/>
		<stop  offset="0.7963" style="stop-color:#4C4C4C"/>
		<stop  offset="0.8904" style="stop-color:#2D2D2D"/>
		<stop  offset="0.9854" style="stop-color:#070707"/>
		<stop  offset="1" style="stop-color:#000000"/>
	</linearGradient>
	<path style="fill:url(#SVGID_8_);" d="M262.778,138.663c0.95,2.63,0.8,5.48-0.4,8.02c-1.2,2.53-3.32,4.45-5.96,5.39
		c-2.64,0.94-5.49,0.8-8.02-0.4l-60.1-28.48l9-18.98l60.09,28.48C259.928,133.893,261.838,136.013,262.778,138.663z"/>
	<linearGradient id="SVGID_9_" gradientUnits="userSpaceOnUse" x1="122.8351" y1="254.8147" x2="431.0855" y2="254.8147">
		<stop  offset="0" style="stop-color:#CCCCCC"/>
		<stop  offset="0.0523" style="stop-color:#C8C8C8"/>
		<stop  offset="0.1071" style="stop-color:#BBBBBB"/>
		<stop  offset="0.163" style="stop-color:#A6A6A6"/>
		<stop  offset="0.2194" style="stop-color:#898989"/>
		<stop  offset="0.2545" style="stop-color:#737373"/>
		<stop  offset="0.3489" style="stop-color:#777777"/>
		<stop  offset="0.4514" style="stop-color:#848484"/>
		<stop  offset="0.5578" style="stop-color:#9A9A9A"/>
		<stop  offset="0.6662" style="stop-color:#B8B8B8"/>
		<stop  offset="0.7047" style="stop-color:#C5C5C5"/>
		<stop  offset="0.7413" style="stop-color:#C0C0C0"/>
		<stop  offset="0.7835" style="stop-color:#B2B2B2"/>
		<stop  offset="0.8285" style="stop-color:#9B9B9B"/>
		<stop  offset="0.8755" style="stop-color:#7B7B7B"/>
		<stop  offset="0.924" style="stop-color:#515151"/>
		<stop  offset="0.9731" style="stop-color:#1F1F1F"/>
		<stop  offset="1" style="stop-color:#000000"/>
	</linearGradient>
	<path style="fill:url(#SVGID_9_);" d="M423.798,235.913l-21.76-10.32c-32.67-15.48-47.32-53.81-33.93-86.9l-164.57-78l-2.57,5.42
		c-0.95,2-3.33,2.85-5.33,1.9l-10.84-5.14l-3,6.33l105.73,50.11c16.41,7.78,28.81,21.48,34.92,38.59c6.1,17.1,5.18,35.56-2.6,51.98
		c-7.78,16.42-21.49,28.82-38.59,34.92c-7.46,2.67-15.19,3.99-22.89,3.99c-9.94,0.01-19.84-2.2-29.09-6.59l-105.65-50.07
		c-1.88,5.36-0.36,11.31,3.96,14.9c4.6,3.81,8.55,8.32,11.75,13.38c5.74,9.09,8.8,19.6,8.84,30.4l0.01,0.49c0,0.28,0,0.56,0,0.84
		c0.29,30.33,15.72,58.32,41.26,74.79c25.52,16.46,57.34,18.97,85.13,6.71c11.77-5.19,23.65-11.17,35.3-17.76
		c2.17-1.23,4.53-1.84,6.86-1.84c3,0,5.97,1.01,8.5,2.99c4.23,3.31,6.1,8.47,5.01,13.64c-0.07,0.32-0.15,0.65-0.24,0.97
		c-4.6,16.35-11.39,39.23-18.6,59.13c-0.7,1.94-1.41,3.86-2.12,5.73c-5.78,15.32,1.18,32.86,15.87,39.92
		c20.23,9.73,39.57,13.82,57.49,12.15c11.92-1.11,22.1-8.81,26.57-20.09C444.908,338.273,426.908,249.503,423.798,235.913z
		 M274.258,305.813c-12.64,13.98-29.89,21.43-47.7,21.43c-8.37,0-16.86-1.65-25.05-5.03c-25.6-10.6-41.26-35.33-39.89-63l1.17-23.49
		c0.15-3.05,1.81-5.81,4.43-7.38s5.83-1.72,8.59-0.41l91.58,43.4c6.33,3,10.74,8.65,12.1,15.52
		C280.858,293.713,278.948,300.623,274.258,305.813z M326.978,229.863c4.01-8.47,14.17-12.1,22.64-8.08
		c8.47,4.01,12.1,14.17,8.08,22.64c-1.94,4.1-5.37,7.2-9.64,8.73c-1.87,0.67-3.8,1-5.73,1c-2.48,0-4.96-0.55-7.27-1.65
		C326.588,248.493,322.968,238.333,326.978,229.863z M406.578,424.113c-4.57,12.34-16.11,20.39-29,20.39c-0.47,0-0.93-0.01-1.4-0.03
		c-14.52-0.66-30.3-5.03-46.9-12.98c-14.86-7.12-21.69-24.63-15.54-39.86c8.9-22.06,14.81-42.62,18.74-60.47
		c3.38-15.28,5.29-28.57,6.37-39.1c2.28-22.31,21.64-39.37,44.04-38.93l1.02,0.02c21.6,0.53,39.7,17.17,42.11,38.7
		C432.398,348.743,412.748,407.473,406.578,424.113z"/>
	<linearGradient id="SVGID_10_" gradientUnits="userSpaceOnUse" x1="126.9779" y1="135.1479" x2="197.3479" y2="135.1479">
		<stop  offset="0" style="stop-color:#CCCCCC"/>
		<stop  offset="0.1335" style="stop-color:#C8C8C8"/>
		<stop  offset="0.2735" style="stop-color:#BBBBBB"/>
		<stop  offset="0.4166" style="stop-color:#A6A6A6"/>
		<stop  offset="0.5618" style="stop-color:#898989"/>
		<stop  offset="0.7086" style="stop-color:#636363"/>
		<stop  offset="0.8545" style="stop-color:#353535"/>
		<stop  offset="1" style="stop-color:#000000"/>
	</linearGradient>
	<polygon style="fill:url(#SVGID_10_);" points="197.348,85.423 145.958,193.863 126.978,184.863 178.368,76.433 	"/>
	<linearGradient id="SVGID_11_" gradientUnits="userSpaceOnUse" x1="120.2879" y1="107.5779" x2="177.5679" y2="107.5779">
		<stop  offset="0" style="stop-color:#CCCCCC"/>
		<stop  offset="0.1335" style="stop-color:#C8C8C8"/>
		<stop  offset="0.2735" style="stop-color:#BBBBBB"/>
		<stop  offset="0.4166" style="stop-color:#A6A6A6"/>
		<stop  offset="0.5618" style="stop-color:#898989"/>
		<stop  offset="0.7086" style="stop-color:#636363"/>
		<stop  offset="0.8545" style="stop-color:#353535"/>
		<stop  offset="1" style="stop-color:#000000"/>
	</linearGradient>
	<path style="fill:url(#SVGID_11_);" d="M177.568,59.453l-48.26,101.82c-1.79-4.48-4.87-8.46-9.02-11.32l45.53-96.07L177.568,59.453
		z"/>
	<linearGradient id="SVGID_12_" gradientUnits="userSpaceOnUse" x1="44.5679" y1="108.3729" x2="124.7579" y2="108.3729">
		<stop  offset="0" style="stop-color:#CCCCCC"/>
		<stop  offset="0.1098" style="stop-color:#C8C8C8"/>
		<stop  offset="0.2249" style="stop-color:#BBBBBB"/>
		<stop  offset="0.3425" style="stop-color:#A6A6A6"/>
		<stop  offset="0.461" style="stop-color:#898989"/>
		<stop  offset="0.5347" style="stop-color:#737373"/>
		<stop  offset="0.6161" style="stop-color:#6F6F6F"/>
		<stop  offset="0.7045" style="stop-color:#626262"/>
		<stop  offset="0.7963" style="stop-color:#4C4C4C"/>
		<stop  offset="0.8904" style="stop-color:#2D2D2D"/>
		<stop  offset="0.9854" style="stop-color:#070707"/>
		<stop  offset="1" style="stop-color:#000000"/>
	</linearGradient>
	<polygon style="fill:url(#SVGID_12_);" points="124.758,121.843 120.468,130.883 44.568,94.903 48.848,85.863 	"/>
	<linearGradient id="SVGID_13_" gradientUnits="userSpaceOnUse" x1="90.8833" y1="37.4616" x2="71.3806" y2="77.4482">
		<stop  offset="0" style="stop-color:#CCCCCC"/>
		<stop  offset="0.1098" style="stop-color:#C8C8C8"/>
		<stop  offset="0.2249" style="stop-color:#BBBBBB"/>
		<stop  offset="0.3425" style="stop-color:#A6A6A6"/>
		<stop  offset="0.461" style="stop-color:#898989"/>
		<stop  offset="0.5347" style="stop-color:#737373"/>
		<stop  offset="0.6161" style="stop-color:#6F6F6F"/>
		<stop  offset="0.7045" style="stop-color:#626262"/>
		<stop  offset="0.7963" style="stop-color:#4C4C4C"/>
		<stop  offset="0.8904" style="stop-color:#2D2D2D"/>
		<stop  offset="0.9854" style="stop-color:#070707"/>
		<stop  offset="1" style="stop-color:#000000"/>
	</linearGradient>
	<polygon style="fill:url(#SVGID_13_);" points="150.878,66.723 132.468,105.573 11.378,48.183 29.798,9.333 	"/>
	<path d="M454.208,177.693c1.03,2.9,0.88,6.02-0.43,8.79c-2.72,5.73-9.59,8.18-15.32,5.47l-3.23-1.53
		c-5.68-2.7-12.46-1.81-17.26,2.25l-5.49,4.63c0.31,7.62-1.5,15.13-5.3,21.85c0,0.01,0,0.01-0.01,0.02l21.79,10.33
		c1.07,0.51,1.86,1.46,2.16,2.61c0.26,1,6.43,25.08,7.79,61.82c1.26,33.88-1.58,85.25-22.25,137.49
		c-5.58,14.1-18.33,23.72-33.27,25.11c-2.86,0.27-5.74,0.4-8.65,0.4c-16.87,0-34.67-4.46-53.05-13.3
		c-18.39-8.85-27.12-30.79-19.88-49.96c7.87-20.83,15.49-46.41,20.5-64.19c0.66-2.35-0.09-4.65-2.01-6.15
		c-1.93-1.51-4.35-1.7-6.48-0.49c-11.88,6.72-24,12.82-36.02,18.12c-30.25,13.35-64.9,10.62-92.69-7.3
		c-27.81-17.94-44.6-48.41-44.92-81.52c0-0.31,0-0.54,0-0.77l-0.01-0.54c-0.04-9.28-2.67-18.33-7.61-26.14
		c-2.75-4.36-6.14-8.23-10.09-11.51c-7.51-6.23-9.78-16.87-5.52-25.86l4.5-9.5c1.95-4.1,2.18-8.72,0.65-12.99
		c-1.52-4.28-4.62-7.71-8.73-9.65c-0.96-0.45-1.7-1.27-2.05-2.27c-0.36-1-0.3-2.1,0.15-3.06l5.57-11.75l-79.52-37.68
		c-2-0.95-2.85-3.34-1.9-5.33l7.71-16.27c0.45-0.96,1.27-1.7,2.27-2.05c1-0.36,2.09-0.3,3.05,0.15l79.52,37.69l0.86-1.81
		l-124.7-59.1c-0.96-0.46-1.7-1.27-2.06-2.27c-0.35-1-0.3-2.1,0.16-3.06l21.84-46.09c0.95-1.99,3.33-2.84,5.33-1.9l124.7,59.11
		l6-12.65c0.94-2,3.33-2.85,5.32-1.9l29.82,14.13l2.57-5.42c0.95-2,3.33-2.85,5.33-1.9l171.69,81.37c2,0.95,2.85,3.33,1.9,5.33
		c-2.99,6.32-4.77,12.92-5.45,19.52c4.95-0.02,9.88,0.86,14.5,2.62l0.39,0.15c10.46,4.1,21.83,4.35,32.03,0.71
		c3.41-1.22,7.23-1.03,10.5,0.52l19.4,9.2C451.078,172.483,453.178,174.803,454.208,177.693z M446.548,183.063
		c0.39-0.84,0.44-1.79,0.13-2.68c-0.32-0.88-0.96-1.59-1.8-1.99l-19.4-9.19c-1.36-0.65-2.96-0.73-4.38-0.22
		c-12.02,4.29-25.38,4.01-37.62-0.78l-0.35-0.14c-3.78-1.44-7.85-2.14-11.91-2.09c0.63,19.85,11.1,38.76,28.85,49.49
		c0.05-0.08,0.1-0.15,0.14-0.23c3.35-5.93,4.78-12.61,4.16-19.31c-0.12-1.3,0.4-2.58,1.4-3.42l7.03-5.94
		c7.2-6.08,17.35-7.4,25.86-3.37l3.22,1.53C443.628,185.553,445.718,184.803,446.548,183.063z M409.218,428.483
		c35.69-90.21,17.69-178.98,14.58-192.57l-21.76-10.32c-32.67-15.48-47.32-53.81-33.93-86.9l-164.57-78l-2.57,5.42
		c-0.95,2-3.33,2.85-5.33,1.9l-10.84-5.14l-3,6.33l105.73,50.11c16.41,7.78,28.81,21.48,34.92,38.59c6.1,17.1,5.18,35.56-2.6,51.98
		s-21.49,28.82-38.59,34.92c-7.46,2.67-15.19,3.99-22.89,3.99c-9.94,0.01-19.84-2.2-29.09-6.59l-105.65-50.07
		c-1.88,5.36-0.36,11.31,3.96,14.9c4.6,3.81,8.55,8.32,11.75,13.38c5.74,9.09,8.8,19.6,8.84,30.4l0.01,0.49c0,0.28,0,0.56,0,0.84
		c0.29,30.33,15.72,58.32,41.26,74.79c25.52,16.46,57.34,18.97,85.13,6.71c11.77-5.19,23.65-11.17,35.3-17.76
		c2.17-1.23,4.53-1.84,6.86-1.84c3,0,5.97,1.01,8.5,2.99c4.23,3.31,6.1,8.47,5.01,13.64c-0.07,0.32-0.15,0.65-0.24,0.97
		c-4.6,16.35-11.39,39.23-18.6,59.13c-0.7,1.94-1.41,3.86-2.12,5.73c-5.78,15.32,1.18,32.86,15.87,39.92
		c20.23,9.73,39.57,13.82,57.49,12.15C394.568,447.463,404.748,439.763,409.218,428.483z M312.618,206.453
		c9.73-20.53,6.74-43.88-5.77-61.08l-45.17,95.32c5.69-0.32,11.37-1.45,16.89-3.42C293.658,231.893,305.748,220.943,312.618,206.453
		z M252.898,240.533l48.27-101.86c-4.8-4.89-10.53-9.03-17.07-12.13l-79.52-37.69l-3.86,8.13l60.1,28.48
		c4.47,2.12,7.84,5.85,9.5,10.51c1.66,4.63,1.41,9.66-0.71,14.13s-5.84,7.84-10.5,9.5c-2.03,0.73-4.13,1.09-6.23,1.09
		c-2.7,0-5.39-0.6-7.91-1.79l-60.09-28.49l-10.28,21.69l60.09,28.48c4.47,2.12,7.85,5.85,9.5,10.51c1.66,4.64,1.42,9.66-0.7,14.13
		c-3.16,6.67-9.82,10.58-16.75,10.58c-2.65,0-5.34-0.57-7.9-1.78l-60.09-28.48l-5.57,11.74l79.52,37.69
		C239.168,238.043,245.988,239.893,252.898,240.533z M262.378,146.683c1.2-2.54,1.35-5.39,0.4-8.02c-0.94-2.65-2.85-4.77-5.39-5.97
		l-60.09-28.48l-9,18.98l60.1,28.48c2.53,1.2,5.38,1.34,8.02,0.4C259.058,151.133,261.178,149.213,262.378,146.683z
		 M236.258,201.803c1.2-2.54,1.34-5.39,0.4-8.02c-0.94-2.65-2.86-4.77-5.4-5.97l-60.09-28.48l-8.99,18.98l60.09,28.48
		C227.498,209.273,233.778,207.033,236.258,201.803z M145.958,193.863l51.39-108.44l-18.98-8.99l-51.39,108.43L145.958,193.863z
		 M129.308,161.273l48.26-101.82l-11.75-5.57l-45.53,96.07C124.438,152.813,127.518,156.793,129.308,161.273z M132.468,105.573
		l18.41-38.85L29.798,9.333l-18.42,38.85L132.468,105.573z M120.468,130.883l4.29-9.04l-75.91-35.98l-4.28,9.04L120.468,130.883z"/>
	<path d="M426.018,291.853c6.38,56.89-13.27,115.62-19.44,132.26c-4.57,12.34-16.11,20.39-29,20.39c-0.47,0-0.93-0.01-1.4-0.03
		c-14.52-0.66-30.3-5.03-46.9-12.98c-14.86-7.12-21.69-24.63-15.54-39.86c8.9-22.06,14.81-42.62,18.74-60.47
		c3.38-15.28,5.29-28.57,6.37-39.1c2.28-22.31,21.64-39.37,44.04-38.93l1.02,0.02C405.508,253.683,423.608,270.323,426.018,291.853z
		 M413.658,295.773l5.43,10.29c-0.18-4.22-0.49-8.44-0.95-12.66L413.658,295.773z M418.838,329.563l-18.65,9.86l11.35,21.48
		l3.98-2.1C417.048,349.513,418.238,339.673,418.838,329.563z M417.938,320.993l-11.36-21.48l-21.48,11.35l11.35,21.49
		L417.938,320.993z M409.918,288.703l6.48-3.42c-2.78-8.15-8.41-14.94-15.64-19.22l-2.19,1.16L409.918,288.703z M411.698,378.323
		l-3.49-6.61l-21.49,11.35l11.36,21.49l7.9-4.17C407.868,393.943,409.858,386.503,411.698,378.323z M404.468,364.643l-11.35-21.48
		l-21.48,11.35l11.35,21.48L404.468,364.643z M402.848,292.443l-11.36-21.49l-21.48,11.36l11.35,21.48L402.848,292.443z
		 M398.558,422.583l-3.82-7.21l-21.48,11.35l5.16,9.76C387.198,436.173,394.978,430.783,398.558,422.583z M391.008,408.293
		l-11.36-21.49l-21.48,11.36l11.35,21.48L391.008,408.293z M389.378,336.083l-11.35-21.48l-21.48,11.35l11.35,21.49L389.378,336.083
		z M387.748,263.883l-1.34-2.55c-0.89-0.09-1.79-0.16-2.69-0.18l-1-0.02c-7.57-0.16-14.72,2.15-20.62,6.2l4.17,7.9L387.748,263.883z
		 M375.908,379.733l-11.35-21.48l-21.48,11.36l11.35,21.47L375.908,379.733z M374.288,307.533l-11.35-21.49l-16.32,8.63
		c-0.34,3.15-0.76,6.53-1.26,10.12l7.45,14.09L374.288,307.533z M368.998,435.783l-2.81-5.33l-6.69,3.54
		C362.728,434.763,365.898,435.363,368.998,435.783z M362.448,423.383l-11.36-21.48l-27.48,14.52c2.24,3.27,5.32,6.03,9.13,7.85
		c5.35,2.57,10.6,4.73,15.74,6.5L362.448,423.383z M360.828,351.183l-11.36-21.49l-9.59,5.07c-1.4,6.2-3.03,12.7-4.93,19.46
		l4.39,8.31L360.828,351.183z M359.198,278.973l-3.3-6.25c-3.1,3.39-5.56,7.38-7.17,11.78L359.198,278.973z M347.358,394.823
		l-11.36-21.48l-8.52,4.51c-1.93,5.48-4.03,11.08-6.33,16.77c-1.92,4.78-2.11,9.85-0.88,14.52L347.358,394.823z M345.738,322.623
		l-2.47-4.66c-0.38,2.15-0.79,4.36-1.24,6.62L345.738,322.623z"/>
	<path d="M349.618,221.783c8.47,4.01,12.1,14.17,8.08,22.64c-1.94,4.1-5.37,7.2-9.64,8.73c-1.87,0.67-3.8,1-5.73,1
		c-2.48,0-4.96-0.55-7.27-1.65c-8.47-4.01-12.09-14.17-8.08-22.64C330.988,221.393,341.148,217.763,349.618,221.783z
		 M350.468,240.993c2.13-4.48,0.21-9.86-4.27-11.98c-1.24-0.59-2.55-0.87-3.84-0.87c-3.37,0-6.61,1.9-8.15,5.14
		c-2.13,4.49-0.21,9.87,4.28,11.99c2.17,1.03,4.61,1.15,6.88,0.34C347.628,244.813,349.448,243.173,350.468,240.993z"/>
	<path d="M279.488,286.853c1.37,6.86-0.54,13.77-5.23,18.96c-12.64,13.98-29.89,21.43-47.7,21.43c-8.37,0-16.86-1.65-25.05-5.03
		c-25.6-10.6-41.26-35.33-39.89-63l1.17-23.49c0.15-3.05,1.81-5.81,4.43-7.38c2.62-1.57,5.83-1.72,8.59-0.41l91.58,43.4
		C273.718,274.333,278.128,279.983,279.488,286.853z M268.328,300.453c2.97-3.3,4.18-7.69,3.32-12.04
		c-0.87-4.36-3.67-7.95-7.68-9.85l-5.18-2.45c-12.7,20.74-28.43,31.18-46.91,31.18c-5.11,0-10.42-0.8-15.94-2.39
		c-1.84-0.53-3.09-2.3-2.92-4.21s1.63-3.44,3.54-3.64c7.56-0.78,14.33-4.49,19.06-10.45c4.73-5.95,6.8-13.39,5.85-20.93l-0.98-7.71
		l-48.1-22.8c-0.18-0.08-0.34-0.11-0.49-0.11c-0.25,0-0.45,0.09-0.57,0.16c-0.2,0.11-0.52,0.39-0.55,0.91l-1.17,23.48
		c-1.46,29.44,17.1,47.82,34.96,55.21C222.428,322.213,248.558,322.313,268.328,300.453z M251.508,272.663l-22.44-10.64l0.34,2.64
		c1.22,9.7-1.45,19.26-7.53,26.92c-2.38,3.01-5.18,5.57-8.28,7.63C228.358,298.543,240.858,289.743,251.508,272.663z"/>
</g>
</svg>