<?xml version="1.0" encoding="iso-8859-1"?>

<!DOCTYPE svg PUBLIC "-//W3C//DTD SVG 1.1//EN" "http://www.w3.org/Graphics/SVG/1.1/DTD/svg11.dtd">
<!-- Uploaded to: SVG Repo, www.svgrepo.com, Generator: SVG Repo Mixer Tools -->
<svg version="1.1" id="_x34_" xmlns="http://www.w3.org/2000/svg" xmlns:xlink="http://www.w3.org/1999/xlink" 
	 viewBox="0 0 512 512"  xml:space="preserve">
<g>
	<g>
		<path style="fill:#333333;" d="M271.244,151.108c0,9.088-7.36,16.455-16.455,16.455c-9.095,0-16.455-7.367-16.455-16.455
			c0-9.088,7.36-16.455,16.455-16.455C263.884,134.653,271.244,142.02,271.244,151.108z"/>
		<g>
			<path style="fill:#424242;" d="M72.668,324.537H252.69V144.502C153.274,144.502,72.668,225.108,72.668,324.537z"/>
			<path style="fill:#333333;" d="M252.69,144.502v180.036h180.036C432.726,225.108,352.133,144.502,252.69,144.502z"/>
		</g>
		<g>
			<polygon points="114.404,306.992 75.675,489.013 252.69,489.013 252.69,306.992 			"/>
			<polygon style="fill:#1E1E1E;" points="412.598,306.992 252.69,306.992 252.69,489.013 451.334,489.013 			"/>
		</g>
		<g>
			<polygon style="fill:#424242;" points="31.51,310.672 100.896,335.194 119.604,282.256 50.219,257.742 			"/>
			<polygon style="fill:#424242;" points="4.797,496.823 75.958,496.823 87.219,447.048 90.139,434.138 100.801,387.02 
				103.728,374.117 118.01,310.989 82.429,287.752 50.36,374.117 45.563,387.02 28.066,434.138 23.27,447.048 			"/>
			<polygon style="fill:#231815;" points="90.139,434.138 28.066,434.138 23.27,447.048 87.219,447.048 			"/>
			<polygon style="fill:#231815;" points="75.581,497.065 4.797,497.065 0,509.975 72.661,509.975 			"/>
			<polygon style="fill:#231815;" points="103.728,374.117 50.36,374.117 45.563,387.02 100.801,387.02 			"/>
		</g>
		<g>
			<polygon style="fill:#595758;" points="480.49,310.672 411.104,335.194 392.389,282.256 461.787,257.742 			"/>
			<polygon style="fill:#595758;" points="507.21,496.823 436.049,496.823 424.788,447.048 421.868,434.138 411.199,387.02 
				408.279,374.117 393.99,310.989 429.578,287.752 461.64,374.117 466.443,387.02 483.947,434.138 488.724,447.048 			"/>
			<polygon style="fill:#231815;" points="424.788,447.048 488.724,447.048 483.947,434.138 421.868,434.138 			"/>
			<polygon style="fill:#231815;" points="439.345,509.975 512,509.975 507.21,497.065 436.426,497.065 			"/>
			<polygon style="fill:#231815;" points="411.199,387.02 466.443,387.02 461.64,374.117 408.279,374.117 			"/>
		</g>
		<g>
			<path style="fill:#888888;" d="M106.432,307.121c0,39.435,65.867,71.396,147.119,71.396v-71.396H106.432z"/>
			<path style="fill:#747272;" d="M253.551,307.121v71.396c81.253,0,147.126-31.961,147.126-71.396H253.551z"/>
		</g>
	</g>
	<rect x="20.141" y="485.158" style="fill:#E89214;" width="13.549" height="7.75"/>
	<rect x="47.891" y="485.158" style="fill:#E89214;" width="13.549" height="7.75"/>
	<rect x="446.732" y="485.158" style="fill:#E89214;" width="13.563" height="7.75"/>
	<rect x="474.489" y="485.158" style="fill:#E89214;" width="13.562" height="7.75"/>
	<g>
		<path style="fill:#EDDE6E;" d="M205.115,223.063c-62.651,0-117.835-31.921-150.194-80.384
			c15.117,85.752,89.978,150.893,180.063,150.893c5.974,0,11.88-0.303,17.706-0.861v-76.005
			C237.54,220.843,221.583,223.063,205.115,223.063z"/>
		<path style="fill:#EAD73C;" d="M417.818,110.731c0-41.629-13.898-79.994-37.322-110.731c3.309,13.663,5.058,27.931,5.058,42.61
			c0,83.176-56.293,153.214-132.864,174.096v76.005C345.365,283.804,417.818,205.727,417.818,110.731z"/>
	</g>
	<g>
		<path style="fill:#EDDE6E;" d="M205.115,223.063c-62.651,0-117.835-31.921-150.194-80.384
			c15.117,85.752,89.978,150.893,180.063,150.893c5.974,0,11.88-0.303,17.706-0.861v-76.005
			C237.54,220.843,221.583,223.063,205.115,223.063z"/>
		<path style="fill:#EAD73C;" d="M417.818,110.731c0-41.629-13.898-79.994-37.322-110.731c3.309,13.663,5.058,27.931,5.058,42.61
			c0,83.176-56.293,153.214-132.864,174.096v76.005C345.365,283.804,417.818,205.727,417.818,110.731z"/>
	</g>
	<g>
		<path style="fill:#888888;" d="M151.445,199.087c9.996-9.384,20.639-16.421,30.986-21.722
			c15.513-7.925,30.367-11.914,41.305-13.899c5.476-0.995,9.97-1.48,13.064-1.728c1.547-0.121,2.758-0.182,3.552-0.209
			c0.404-0.014,0.7-0.02,0.902-0.027c0.094-0.007,0.161-0.007,0.215-0.007h0.027h0.014v-0.552v0.552l0,0v-0.552v0.552l-0.014-2.852
			v2.852h0.014l-0.014-2.852v2.852c2.328,0,4.212-1.876,4.212-4.198c0-2.314-1.884-4.191-4.212-4.191
			c-0.242,0-13.508,0.014-32.048,4.985c-9.284,2.482-19.886,6.209-30.838,11.806c-10.952,5.611-22.267,13.091-32.91,23.068
			c-1.688,1.581-1.77,4.238-0.189,5.933C147.092,200.58,149.749,200.668,151.445,199.087z"/>
	</g>
</g>
</svg>