<?xml version="1.0" encoding="iso-8859-1"?>
<!-- Uploaded to: SVG Repo, www.svgrepo.com, Generator: SVG Repo Mixer Tools -->
<svg height="800px" width="800px" version="1.1" id="Layer_1" xmlns="http://www.w3.org/2000/svg" xmlns:xlink="http://www.w3.org/1999/xlink" 
	 viewBox="0 0 512 512" xml:space="preserve">
<path style="fill:#6E5B3F;" d="M370.308,162.868c8.77,8.976,17.24,18.693,25.322,29.25
	c102.3,133.627,105.733,262.874,105.733,262.874h-66.56c0,0-33.286-215.372-181.193-297.709c4.768-22.459-1.098-46.307-8.921-65.645
	c-2.077-5.134-5.887-8.459-10.245-10.03l1.012-2.884c34.609,12.096,73.029,30.918,108.746,60.221
	C353.111,146.252,361.839,154.205,370.308,162.868z"/>
<path style="fill:#FFF3E6;" d="M253.608,157.283c147.907,82.337,181.193,297.709,181.193,297.709H256.062
	c-10.245,0-18.564-8.211-18.726-18.445c-0.431-27.097-6.209-80.928-39.699-140.289c-11.418,7.039-25.515,11.741-41.379,13.01
	c-18.058,1.442-39.516,16.788-57.768,33.361l-55.638-37.526l-1.173-0.753l113.406-177.308c15.572,1.464,30.315,4.208,44.273,8.049
	l11.816-41.658c3.1-10.934,14.324-15.056,23.267-11.827c4.358,1.571,8.168,4.896,10.245,10.03
	C252.511,110.976,258.376,134.823,253.608,157.283z"/>
<path style="fill:#6E5B3F;" d="M235.454,78.723l-1.012,2.884c-8.943-3.228-20.167,0.894-23.267,11.827l-11.816,41.658
	c-13.958-3.842-28.701-6.587-44.273-8.049l-31.704-70.036C123.383,57.006,173.284,57.006,235.454,78.723z"/>
<path style="fill:#DBB67E;" d="M42.854,305.105l55.638,37.526c-7.555,6.855-14.56,13.925-20.544,20.307
	c-12.268,13.075-31.887,16.056-47.459,7.178l-16.444-9.374c-3.357-1.916-4.434-6.253-2.346-9.513l29.982-46.877L42.854,305.105z"/>
<path d="M178.665,206.879c-5.875,0-10.637,4.762-10.637,10.637c0,3.938-3.203,7.141-7.141,7.141c-3.932,0-7.13-3.204-7.13-7.141
	c0-5.875-4.762-10.637-10.637-10.637c-5.875,0-10.637,4.762-10.637,10.637c0,15.669,12.742,28.415,28.404,28.415
	c15.668,0,28.415-12.747,28.415-28.415C189.302,211.641,184.54,206.879,178.665,206.879z"/>
<path d="M8.777,369.983l16.443,9.374c7.69,4.385,16.117,6.515,24.472,6.515c13.281,0,26.375-5.385,36.014-15.658
	c6.709-7.156,13.378-13.751,19.829-19.61c0.007-0.006,0.015-0.014,0.021-0.02c0.028-0.026,0.056-0.052,0.085-0.078
	c26.47-24.035,42.596-29.925,51.466-30.632c12.883-1.032,25.202-4.205,36.2-9.267c28.016,53.752,33.005,101.628,33.393,126.109
	c0.251,15.944,13.423,28.915,29.361,28.915h178.74h66.56c2.87,0,5.619-1.159,7.622-3.216c2.002-2.056,3.088-4.835,3.012-7.703
	c-0.039-1.471-1.133-36.638-16.436-89.331c-1.638-5.641-7.538-8.886-13.182-7.248c-5.642,1.638-8.886,7.54-7.248,13.182
	c9.629,33.157,13.345,59.218,14.758,73.042h-46.192c-3.538-18.16-13.342-61.52-34.21-111.444
	c-15.908-38.053-34.973-71.958-56.669-100.774c-25.648-34.066-55.066-61.082-87.525-80.4c1.923-15.945-0.254-33.502-6.468-52.398
	c25.571,11.206,49.109,25.019,70.314,41.263l-9.063,11.139c-3.708,4.557-3.019,11.257,1.538,14.964
	c1.973,1.605,4.347,2.387,6.707,2.387c3.09,0,6.156-1.34,8.258-3.924l9.004-11.068c3.389,2.979,6.719,6.031,9.976,9.153
	l-9.767,10.707c-3.959,4.34-3.651,11.068,0.689,15.027c2.039,1.862,4.607,2.778,7.165,2.778c2.886,0,5.763-1.168,7.862-3.469
	l8.921-9.78c2.644,2.911,5.243,5.874,7.779,8.887l-9.901,10.652c-4,4.303-3.754,11.034,0.55,15.034
	c2.049,1.904,4.647,2.845,7.24,2.845c2.853,0,5.698-1.14,7.794-3.395l7.628-8.207c25.377,34.07,46.546,70.787,62.96,109.25
	c1.724,4.041,5.655,6.465,9.788,6.464c1.392,0,2.808-0.276,4.17-0.856c5.404-2.305,7.914-8.555,5.608-13.959
	c-18.039-42.267-41.579-82.501-69.968-119.583c-8.085-10.562-16.887-20.729-26.162-30.22c-8.495-8.688-17.568-17.004-26.967-24.71
	c-0.01-0.007-0.019-0.015-0.029-0.023c-0.002-0.001-0.003-0.003-0.005-0.004c-0.002-0.002-0.004-0.003-0.007-0.005
	c-32.259-26.458-69.921-47.321-111.945-62.008c-63.147-22.059-113.467-22.313-115.578-22.313c-3.613,0-6.98,1.835-8.938,4.872
	c-1.959,3.037-2.242,6.86-0.752,10.152l29.324,64.779L2.741,345.492c-2.558,3.995-3.375,8.929-2.241,13.535
	C1.635,363.636,4.65,367.629,8.777,369.983z M70.19,355.659c-8.943,9.53-23.102,11.675-34.434,5.215l-12.898-7.352l3.373-5.274
	l4.884,3.242c1.81,1.202,3.854,1.776,5.874,1.776c3.444,0,6.824-1.67,8.871-4.754c3.25-4.894,1.917-11.497-2.977-14.745
	l-5.188-3.444l7.091-11.086l36.755,24.79C77.781,347.725,73.988,351.607,70.19,355.659z M389.658,340.643
	c18.663,44.527,28.302,84.409,32.309,103.712H256.062c-4.391,0-8.02-3.578-8.09-7.977c-0.421-26.59-5.85-78.724-36.459-136.857
	c23.301-18.348,32.701-45.635,24.006-71.829c-1.85-5.576-7.869-8.596-13.446-6.745c-5.576,1.851-8.596,7.87-6.745,13.446
	c6.54,19.704-2.376,39.939-23.272,52.809c-10.403,6.412-23.075,10.377-36.644,11.463c-16.188,1.292-35.605,11.566-57.788,30.549
	L56.252,301.31l104.249-162.993c8.682,1.038,17.25,2.525,25.626,4.428l-0.1,0.352c-1.605,5.652,1.675,11.534,7.327,13.139
	c5.653,1.605,11.534-1.675,13.139-7.327l3.102-10.934c0.006-0.021,0.015-0.04,0.02-0.062c0.004-0.016,0.006-0.031,0.011-0.047
	l11.784-41.534c0.57-2.014,1.72-3.475,3.416-4.345c1.824-0.934,4.07-1.075,6.009-0.377c1.84,0.664,3.184,2.014,3.992,4.012
	c9.126,22.558,11.947,42.537,8.39,59.379c-0.015,0.069-0.032,0.137-0.046,0.206c-1.469,6.825-4.029,13.176-7.616,18.877
	c-3.128,4.972-1.634,11.539,3.339,14.668c1.759,1.107,3.719,1.636,5.655,1.636c3.535,0,6.992-1.762,9.013-4.974
	c2.411-3.833,4.477-7.873,6.197-12.084C326.556,215.522,367.102,286.828,389.658,340.643z M205.902,80.685
	c-2.231,2.864-3.921,6.183-4.959,9.846l-9,31.721c-9.693-2.246-19.62-3.972-29.678-5.146l-21.937-48.461
	C155.096,70,178.427,73.192,205.902,80.685z"/>
<path d="M470.508,324.413c-5.513,2.027-8.34,8.142-6.311,13.655c0.571,1.554,1.131,3.099,1.677,4.633
	c1.552,4.353,5.648,7.067,10.019,7.067c1.185,0,2.392-0.2,3.573-0.621c5.533-1.973,8.419-8.059,6.446-13.592
	c-0.571-1.6-1.153-3.209-1.75-4.83C482.135,325.21,476.023,322.384,470.508,324.413z"/>
</svg>