<?xml version="1.0" encoding="iso-8859-1"?>
<!-- Uploaded to: SVG Repo, www.svgrepo.com, Generator: SVG Repo Mixer Tools -->
<svg fill="#000000" height="800px" width="800px" version="1.1" id="Capa_1" xmlns="http://www.w3.org/2000/svg" xmlns:xlink="http://www.w3.org/1999/xlink" 
	 viewBox="0 0 58.195 58.195" xml:space="preserve">
<g>
	<g>
		<path d="M44.26,19.134c-1.069-1.85-3.061-3-5.196-3s-4.127,1.149-5.196,3c-0.18,0.31-0.18,0.691,0,1.001
			c1.069,1.85,3.061,3,5.196,3s4.127-1.149,5.196-3C44.439,19.825,44.439,19.443,44.26,19.134z M39.063,21.134
			c-1.22,0-2.369-0.563-3.122-1.5c0.753-0.937,1.902-1.5,3.122-1.5s2.369,0.563,3.122,1.5
			C41.433,20.571,40.283,21.134,39.063,21.134z"/>
		<path d="M19.063,16.134c-2.136,0-4.127,1.149-5.196,3c-0.18,0.31-0.18,0.691,0,1.001c1.069,1.85,3.061,3,5.196,3
			s4.127-1.149,5.196-3c0.18-0.31,0.18-0.691,0-1.001C23.19,17.284,21.199,16.134,19.063,16.134z M19.063,21.134
			c-1.22,0-2.369-0.563-3.122-1.5c0.753-0.937,1.902-1.5,3.122-1.5s2.369,0.563,3.122,1.5
			C21.433,20.571,20.283,21.134,19.063,21.134z"/>
		<path d="M58.025,41.709c-0.012-0.408-0.27-0.768-0.652-0.91l-6.034-2.235C55.449,34.692,58,30.393,58,27.134
			c0-5.862-4.491-7.729-7.353-7.972c-0.516-1.088-1.275-2.634-2.176-4.323l-0.576-1.153c-0.05-0.1-0.118-0.184-0.195-0.26
			c-2.49-4.456-5.754-9.293-8.199-9.293h-21c-2.445,0-5.71,4.836-8.199,9.293c-0.077,0.076-0.145,0.16-0.195,0.26l-0.577,1.154
			c-0.902,1.688-1.66,3.234-2.176,4.322C4.491,19.406,0,21.272,0,27.134c0,3.826,3.509,9.089,8.94,13.408
			c6.067,4.825,13.379,7.592,20.06,7.592c4.307,0,8.874-1.156,13.203-3.266l4.35,8.642c0.128,0.254,0.358,0.441,0.633,0.516
			c0.086,0.023,0.173,0.035,0.261,0.035c0.191,0,0.381-0.055,0.545-0.161l5.451-3.54c0.229-0.149,0.388-0.386,0.438-0.655
			c0.05-0.27-0.013-0.547-0.173-0.77L51.76,46.24l4.983,2.529c0.143,0.073,0.297,0.108,0.452,0.108c0.187,0,0.372-0.052,0.535-0.155
			c0.298-0.188,0.475-0.52,0.465-0.873L58.025,41.709z M48.718,19.806c-2.284,1.544-6.883,4.328-9.218,4.328
			c-1.61,0-3.244-0.467-4.976-0.961c-1.786-0.511-3.635-1.039-5.524-1.039s-3.738,0.528-5.524,1.039
			c-1.731,0.494-3.365,0.961-4.976,0.961c-2.332,0-6.933-2.784-9.218-4.328l1.772-3.544c0.202-0.38,0.405-0.756,0.61-1.128h34.671
			c0.207,0.375,0.412,0.756,0.616,1.14L48.718,19.806z M18.5,6.134h21c1.088,0,3.355,3.016,5.698,7H12.802
			C15.144,9.151,17.411,6.134,18.5,6.134z M2,27.134c0-5.255,4.42-5.908,5.701-5.987c1.473,1.028,7.371,4.987,10.799,4.987
			c1.89,0,3.738-0.528,5.524-1.039c1.731-0.494,3.365-0.961,4.976-0.961s3.244,0.467,4.976,0.961
			c1.786,0.511,3.635,1.039,5.524,1.039c3.427,0,9.325-3.959,10.798-4.987C51.585,21.227,56,21.882,56,27.134
			c0,6.095-12.774,19-27,19S2,33.229,2,27.134z M47.838,51.614l-3.862-7.671c0.86-0.479,1.706-0.995,2.536-1.549l4.959,6.86
			L47.838,51.614z M49.477,42.839c-0.07-0.036-0.145-0.043-0.219-0.061l-1.112-1.538c0.307-0.229,0.613-0.459,0.914-0.698
			c0.198-0.157,0.388-0.318,0.58-0.478c0.005,0.002,0.008,0.006,0.013,0.008l6.393,2.368l0.104,3.786L49.477,42.839z"/>
		<path d="M49.733,32.162c-0.166-0.041-4.099-0.96-8.867,0.119c-1.903,0.43-3.89,1.222-5.81,1.988
			c-2.407,0.959-4.68,1.865-6.307,1.865c-1.802,0-4.167-0.937-6.67-1.929c-1.856-0.736-3.776-1.497-5.596-1.913
			c-4.733-1.083-8.564-0.169-8.723-0.129L6.79,32.402l0.477,1.942l0.971-0.238c0.035-0.009,3.521-0.842,7.801,0.137
			c1.67,0.381,3.518,1.114,5.304,1.822c2.687,1.065,5.223,2.07,7.407,2.07c2.011,0,4.457-0.975,7.047-2.007
			c1.849-0.737,3.761-1.5,5.511-1.895c4.298-0.971,7.925-0.133,7.96-0.125l0.972,0.23l0.465-1.942L49.733,32.162z"/>
	</g>
</g>
</svg>