<?xml version="1.0" encoding="iso-8859-1"?>
<!-- Generator: Adobe Illustrator 19.0.0, SVG Export Plug-In . SVG Version: 6.00 Build 0)  -->
<svg version="1.1" id="Layer_1" xmlns="http://www.w3.org/2000/svg" xmlns:xlink="http://www.w3.org/1999/xlink" x="0px" y="0px"
	 viewBox="0 0 499.2 499.2" style="enable-background:new 0 0 499.2 499.2;" xml:space="preserve">
<path style="fill:#FFC41D;" d="M458.4,87.2c0-16.8-0.8-33.6-2.4-50.4L249.6,0v1.6l0,0l0,0V0L43.2,37.6c-1.6,16-2.4,32.8-2.4,49.6
	c0,195.2,88.8,360,208.8,412l0,0l0,0l0,0l0,0C370.4,447.2,458.4,282.4,458.4,87.2z"/>
<path style="fill:#FF9E1F;" d="M249.6,497.6v1.6l0,0l0,0l0,0c120.8-52,208.8-216.8,208.8-412c0-16.8-0.8-33.6-2.4-50.4L249.6,0v1.6
	l0,0l0,0l0,0"/>
<path style="fill:#34B515;" d="M410.4,122.4c0-13.6-0.8-26.4-1.6-39.2L249.6,53.6v4l0,0l0,0v-4L90.4,83.2
	c-0.8,12.8-1.6,25.6-1.6,39.2c0,152.8,64.8,281.6,160.8,322.4l0,0l0,0l0,0l0,0C345.6,404,410.4,275.2,410.4,122.4z"/>
<g>
	<path style="fill:#329908;" d="M249.6,441.6v4l0,0l0,0l0,0c96-40.8,160.8-169.6,160.8-322.4c0-13.6-0.8-26.4-1.6-39.2L249.6,53.6v4
		l0,0l0,0l0,0"/>
	<polygon style="fill:#329908;" points="337.6,279.2 249.6,328.8 161.6,279.2 161.6,178.4 249.6,128 337.6,178.4 	"/>
</g>
<polyline style="fill:#34B515;" points="249.6,128 337.6,178.4 337.6,279.2 249.6,328.8 "/>
<g>
</g>
<g>
</g>
<g>
</g>
<g>
</g>
<g>
</g>
<g>
</g>
<g>
</g>
<g>
</g>
<g>
</g>
<g>
</g>
<g>
</g>
<g>
</g>
<g>
</g>
<g>
</g>
<g>
</g>
</svg>
